<svg width="286" height="42" viewBox="0 0 286 42" fill="none" xmlns="http://www.w3.org/2000/svg">
<g opacity="0.36">
<g opacity="0.65">
<path d="M14.1596 24.019C11.5817 24.9905 10.3871 25.6736 10.3871 25.6736C10.0976 25.8213 9.73192 26.1718 9.57569 26.4533L7.60441 29.9869C7.44787 30.2675 7.57466 30.4167 7.88586 30.319C7.88586 30.319 8.67712 30.0683 9.44495 29.8469C11.3102 29.3061 14.7576 28.5053 14.7576 28.5053C15.0759 28.4316 15.4643 28.1415 15.6209 27.8606L18.3358 22.994C18.4919 22.7125 18.3665 22.5653 18.0557 22.6656C18.0557 22.6656 16.123 23.2782 14.1596 24.019Z" fill="white"/>
<path d="M31.6706 26.1134C31.9964 26.087 32.1348 25.8357 31.9782 25.5555L29.3789 20.8958C29.2221 20.6146 28.8293 20.4234 28.5059 20.4714L23.2981 21.3409C22.9775 21.4036 22.8437 21.6841 23 21.9648L25.3445 26.1687C25.5014 26.4499 25.8953 26.6542 26.2212 26.625L31.6706 26.1134Z" fill="white"/>
<path d="M28.1352 18.6662L25.5259 13.9876C25.3693 13.7063 24.989 13.5666 24.682 13.6757C21.1218 14.6951 17.5999 16.2658 15.9265 17.3588C15.0003 17.9641 14.1948 18.6195 14.1948 18.6195C13.9437 18.8244 13.6099 19.2212 13.4531 19.5024L11.2614 23.4314C11.1051 23.7113 11.2188 23.8312 11.5155 23.6957C11.5155 23.6957 12.0848 23.4365 12.7223 23.1727C14.8861 22.2756 17.2534 21.4881 19.76 20.8345C19.8077 20.8226 19.856 20.8101 19.9034 20.7979C22.6763 20.0922 27.8334 19.27 27.8334 19.27C28.1558 19.2188 28.292 18.9475 28.1352 18.6662Z" fill="white"/>
<path d="M15.7804 15.9504C15.7804 15.9504 18.2521 14.5149 19.9278 13.8282C21.4015 13.2239 24.0209 12.476 24.0209 12.476C24.3349 12.3862 24.4632 12.0833 24.3072 11.8023L21.8803 7.45251C21.3791 6.65669 20.6052 6.6882 20.1254 7.54796L20.1193 7.5524L15.5539 15.7369C15.3973 16.0176 15.4995 16.1139 15.7804 15.9504Z" fill="white"/>
<path d="M36.0401 32.8376L33.2398 27.8179C33.0832 27.5374 32.7714 27.3189 32.5479 27.3314L32.3409 27.3459C21.971 28.0469 14.3974 29.7534 9.86996 31.0606C8.52734 31.4481 6.94967 31.9794 6.94967 31.9794C6.64053 32.0832 6.42072 32.1413 6.10217 32.6782C6.10217 32.6782 6.07849 32.7216 6.01919 32.8293L6.02071 32.8334C5.62796 33.6702 6.07728 34.334 7.06941 34.334L7.11896 34.3396H34.9907C35.9835 34.3396 36.4321 33.6738 36.0401 32.8376Z" fill="white"/>
<path d="M44.8467 23.5069H48.6057L47.6797 20.2075C47.2439 18.6734 46.8623 16.861 46.7262 15.7455C46.5627 16.861 46.1817 18.6511 45.773 20.2075L44.8467 23.5069ZM49.0686 25.2268H44.3834L43.3213 29.0388C43.2396 29.2949 43.1583 29.4105 42.2859 29.4105C41.9869 29.4105 41.4146 29.3871 40.8966 29.3416L45.7459 13.3522C45.8002 13.12 46.1001 13.0266 46.59 13.0266C46.971 13.0266 47.3523 13.0503 47.6251 13.0964L52.501 29.0148C52.5549 29.2715 52.4187 29.4105 51.5478 29.4105C51.2207 29.4105 50.7849 29.4105 50.2401 29.364L49.0686 25.2268Z" fill="white"/>
<path d="M53.6173 18.3023C54.6802 17.9067 56.4781 17.5117 57.9213 17.5117C60.7807 17.5117 61.7614 18.3718 61.7614 20.625V28.9919C61.7614 29.3642 61.7073 29.3642 59.4741 29.3642V21.1829C59.4741 19.7197 59.2012 19.1621 57.8396 19.1621C57.2671 19.1621 56.4229 19.301 55.8236 19.5805V28.9919C55.8236 29.3642 55.7691 29.3642 53.6173 29.3642V18.3023Z" fill="white"/>
<path d="M63.7495 13.143C63.7495 12.2823 64.1308 12.2823 65.9561 12.2823V18.4172C66.8007 17.7905 67.9714 17.5123 69.0074 17.5123C71.3494 17.5123 71.84 18.6272 71.84 20.5791V28.9922C71.84 29.3639 71.7313 29.3639 69.5514 29.3639V21.114C69.5514 20.0916 69.3334 19.2549 67.9994 19.2549C67.4 19.2549 66.6101 19.4172 65.9561 19.9059V28.9922C65.9561 29.3639 65.9288 29.3639 63.7495 29.3639V13.143Z" fill="white"/>
<path d="M77.7222 23.6704C76.634 23.6704 75.7068 23.9956 75.7068 26.0177C75.7068 27.7145 76.4148 28.0163 77.4787 28.0163C78.0768 28.0163 78.6761 27.83 78.9214 27.6216C79.0034 26.855 79.0034 25.1345 79.0034 23.8801C78.6488 23.7398 78.1041 23.6704 77.7222 23.6704ZM73.7182 18.1394C74.1821 17.8836 75.7888 17.5117 77.8594 17.5117C80.2008 17.5117 81.2361 18.2556 81.2361 20.3474V21.5789C81.2361 24.2513 81.2088 27.0401 81.0734 28.8069C80.3375 29.1779 79.0568 29.597 77.2868 29.597C75.2988 29.6194 73.3921 29.2484 73.3921 26.0635C73.3921 22.8339 75.1889 22.2524 77.0148 22.2524C77.6135 22.2524 78.4587 22.3224 79.0034 22.5549V20.7191C79.0034 19.6272 78.4041 19.3481 77.3141 19.3481C75.9521 19.3481 74.5088 19.5805 73.7182 19.8596C73.4741 19.4876 73.4194 19.0693 73.4194 18.7902C73.4194 18.5347 73.5014 18.2783 73.7182 18.1394Z" fill="white"/>
<path d="M83.1981 18.3023C84.2607 17.9067 86.0581 17.5117 87.5014 17.5117C90.3608 17.5117 91.3409 18.3718 91.3409 20.625V28.9919C91.3409 29.3642 91.2862 29.3642 89.0535 29.3642V21.1829C89.0535 19.7197 88.7814 19.1621 87.4188 19.1621C86.8462 19.1621 86.0034 19.301 85.4041 19.5805V28.9919C85.4041 29.3642 85.3494 29.3642 83.1981 29.3642V18.3023Z" fill="white"/>
<path d="M111.879 28.7599C110.843 29.2484 109.291 29.5967 107.821 29.5967C104.578 29.5967 103.735 28.3425 103.735 25.7389V18.1395C103.735 17.7444 103.735 17.7444 106.023 17.7444V25.9018C106.023 27.4117 106.377 27.9466 107.848 27.9466C108.338 27.9466 109.101 27.8537 109.673 27.5284V18.1395C109.673 17.7444 109.701 17.7444 111.879 17.7444V28.7599Z" fill="white"/>
<path d="M116.047 23.1116C117.082 23.1356 118.77 23.0895 119.723 22.857C119.833 22.439 119.86 21.9044 119.86 21.4621C119.833 19.7892 119.479 19.1619 118.307 19.1619C117.19 19.1619 116.21 19.9752 116.047 23.1116ZM122.011 21.2531C122.011 22.2761 121.93 23.438 121.713 24.2747C119.833 24.5769 117.327 24.6463 116.019 24.6463C116.129 27.1099 116.89 27.7597 118.553 27.7597C119.643 27.7597 120.731 27.4821 121.658 27.0397C121.794 27.389 121.849 27.9466 121.849 28.318C121.849 29.0385 120.132 29.5967 118.089 29.5967C115.557 29.5967 113.732 28.6899 113.732 24.1589C113.732 18.3475 116.155 17.5118 118.553 17.5118C120.84 17.5118 122.011 18.7434 122.011 21.2531Z" fill="white"/>
<path d="M123.672 18.5576C124.735 17.9299 126.043 17.5115 127.377 17.5115C128.766 17.5115 129.284 17.8605 129.284 18.4875C129.284 18.7436 129.23 19.2078 129.039 19.6037C128.631 19.4177 128.194 19.3245 127.732 19.3245C127.132 19.3245 126.452 19.4875 125.933 19.8594L125.907 28.9924C125.907 29.364 125.879 29.364 123.672 29.364V18.5576Z" fill="white"/>
<path d="M134.459 23.6704C133.37 23.6704 132.444 23.9956 132.444 26.0177C132.444 27.7145 133.152 28.0163 134.214 28.0163C134.813 28.0163 135.412 27.83 135.658 27.6216C135.739 26.855 135.739 25.1345 135.739 23.8801C135.385 23.7398 134.84 23.6704 134.459 23.6704ZM130.455 18.1394C130.919 17.8836 132.526 17.5117 134.595 17.5117C136.938 17.5117 137.973 18.2556 137.973 20.3474V21.5789C137.973 24.2513 137.946 27.0401 137.809 28.8069C137.074 29.1779 135.794 29.597 134.023 29.597C132.035 29.6194 130.128 29.2484 130.128 26.0635C130.128 22.8339 131.926 22.2524 133.751 22.2524C134.35 22.2524 135.196 22.3224 135.739 22.5549V20.7191C135.739 19.6272 135.141 19.3481 134.05 19.3481C132.689 19.3481 131.245 19.5805 130.455 19.8596C130.211 19.4876 130.156 19.0693 130.156 18.7902C130.156 18.5347 130.237 18.2783 130.455 18.1394Z" fill="white"/>
<path d="M97.6511 27.6784C97.4719 27.6784 97.3043 27.6586 97.1465 27.6236C96.0626 27.3842 95.4353 26.3343 95.2799 24.4869C95.2519 24.1777 95.2392 23.8466 95.2392 23.4929C95.2392 23.271 95.2471 23.0594 95.258 22.8554C95.323 21.7156 95.5641 20.8555 95.9836 20.3014C96.4652 19.6629 97.161 19.3528 98.1119 19.3528C98.6117 19.3528 99.1114 19.3952 99.6015 19.4794V27.0731C99.5359 27.1234 99.4691 27.1704 99.4005 27.215C98.9147 27.5265 98.3403 27.6784 97.6511 27.6784ZM95.17 33.3177C94.754 33.3297 94.3775 33.3263 94.0764 33.2966C93.9531 33.7105 94.0345 34.1266 94.1262 34.3957C94.2087 34.642 94.3739 34.8693 94.6374 34.9543C94.7595 34.9848 94.9411 35.0089 95.17 35.0208C95.2841 35.0275 95.0698 35.0199 95.2076 35.0208C97.3213 34.9908 98.6597 34.4383 99.9263 33.3679C100.337 33.0218 100.674 32.631 100.956 32.2053C101.57 31.2802 101.886 30.176 101.886 28.8978V18.0845L101.751 18.0472C100.628 17.7429 99.4035 17.5891 98.1119 17.5891C96.3632 17.5891 95.0461 18.0738 94.2045 19.0295C93.4036 19.9376 92.9876 21.374 92.9591 23.2927C92.9591 23.3593 92.9554 23.4235 92.9554 23.4929C92.9554 24.2924 93.0241 25.0066 93.1546 25.6448C93.4613 27.1319 94.1201 28.1796 95.1305 28.7826C95.8124 29.1897 96.6516 29.3962 97.6511 29.3962C98.3166 29.3962 98.9718 29.2781 99.6015 29.0435V29.1234C99.6015 30.2985 99.2171 31.2553 98.4684 31.9771C98.4083 32.0364 98.3494 32.0962 98.2838 32.1529C97.5891 32.7396 97.0548 33.1207 95.9357 33.2447C95.4815 33.2959 95.3388 33.3127 95.17 33.3177Z" fill="white"/>
</g>
<path d="M144.907 9.92795H143.381V31.2826H144.907V9.92795Z" fill="#B6B7B9"/>
</g>
<path d="M153.009 20.2501H157.901V21.7543H153.009V20.2501ZM153.149 24.4676H158.702V26H151.322V16.159H158.505V17.6914H153.149V24.4676ZM164.831 18.4084C165.43 18.4084 165.965 18.5255 166.433 18.7599C166.911 18.9942 167.286 19.355 167.558 19.8424C167.83 20.3204 167.966 20.9389 167.966 21.6981V26H166.208V21.923C166.208 21.2576 166.049 20.7609 165.73 20.4328C165.421 20.1048 164.985 19.9408 164.423 19.9408C164.011 19.9408 163.645 20.0251 163.326 20.1938C163.008 20.3625 162.759 20.6156 162.581 20.953C162.413 21.281 162.328 21.6981 162.328 22.2042V26H160.571V18.4927H162.244V20.5172L161.949 19.8986C162.211 19.4206 162.591 19.0551 163.087 18.802C163.594 18.5396 164.175 18.4084 164.831 18.4084ZM173.653 26.0984C172.866 26.0984 172.163 25.9344 171.544 25.6064C170.935 25.269 170.457 24.8097 170.11 24.2286C169.764 23.6475 169.59 22.9868 169.59 22.2464C169.59 21.4966 169.764 20.8358 170.11 20.2641C170.457 19.683 170.935 19.2285 171.544 18.9004C172.163 18.5724 172.866 18.4084 173.653 18.4084C174.384 18.4084 175.026 18.5583 175.579 18.8583C176.141 19.1488 176.568 19.5799 176.858 20.1516L175.509 20.9389C175.284 20.5828 175.007 20.3204 174.679 20.1516C174.361 19.9829 174.014 19.8986 173.639 19.8986C173.208 19.8986 172.819 19.9923 172.472 20.1798C172.125 20.3672 171.854 20.639 171.657 20.9952C171.46 21.3419 171.362 21.759 171.362 22.2464C171.362 22.7337 171.46 23.1555 171.657 23.5116C171.854 23.8584 172.125 24.1255 172.472 24.313C172.819 24.5004 173.208 24.5941 173.639 24.5941C174.014 24.5941 174.361 24.5098 174.679 24.3411C175.007 24.1724 175.284 23.91 175.509 23.5538L176.858 24.3411C176.568 24.9034 176.141 25.3392 175.579 25.6485C175.026 25.9485 174.384 26.0984 173.653 26.0984ZM181.642 26.0984C180.873 26.0984 180.189 25.9344 179.589 25.6064C178.989 25.269 178.516 24.8097 178.169 24.2286C177.822 23.6475 177.649 22.9868 177.649 22.2464C177.649 21.4966 177.822 20.8358 178.169 20.2641C178.516 19.683 178.989 19.2285 179.589 18.9004C180.189 18.5724 180.873 18.4084 181.642 18.4084C182.42 18.4084 183.108 18.5724 183.708 18.9004C184.318 19.2285 184.791 19.6783 185.128 20.2501C185.475 20.8218 185.648 21.4872 185.648 22.2464C185.648 22.9868 185.475 23.6475 185.128 24.2286C184.791 24.8097 184.318 25.269 183.708 25.6064C183.108 25.9344 182.42 26.0984 181.642 26.0984ZM181.642 24.5941C182.073 24.5941 182.457 24.5004 182.795 24.313C183.132 24.1255 183.394 23.8537 183.582 23.4976C183.779 23.1414 183.877 22.7244 183.877 22.2464C183.877 21.759 183.779 21.3419 183.582 20.9952C183.394 20.639 183.132 20.3672 182.795 20.1798C182.457 19.9923 182.078 19.8986 181.656 19.8986C181.225 19.8986 180.84 19.9923 180.503 20.1798C180.175 20.3672 179.913 20.639 179.716 20.9952C179.519 21.3419 179.42 21.759 179.42 22.2464C179.42 22.7244 179.519 23.1414 179.716 23.4976C179.913 23.8537 180.175 24.1255 180.503 24.313C180.84 24.5004 181.22 24.5941 181.642 24.5941ZM191.589 18.4084C192.188 18.4084 192.723 18.5255 193.191 18.7599C193.669 18.9942 194.044 19.355 194.316 19.8424C194.588 20.3204 194.724 20.9389 194.724 21.6981V26H192.966V21.923C192.966 21.2576 192.807 20.7609 192.488 20.4328C192.179 20.1048 191.743 19.9408 191.181 19.9408C190.768 19.9408 190.403 20.0251 190.084 20.1938C189.766 20.3625 189.517 20.6156 189.339 20.953C189.17 21.281 189.086 21.6981 189.086 22.2042V26H187.329V18.4927H189.002V20.5172L188.707 19.8986C188.969 19.4206 189.349 19.0551 189.845 18.802C190.351 18.5396 190.932 18.4084 191.589 18.4084ZM199.779 26.0984C198.954 26.0984 198.317 25.8875 197.867 25.4658C197.417 25.0346 197.192 24.402 197.192 23.5679V16.8338H198.949V23.5257C198.949 23.8818 199.038 24.1583 199.216 24.3552C199.404 24.552 199.661 24.6504 199.99 24.6504C200.383 24.6504 200.711 24.5473 200.974 24.3411L201.466 25.5923C201.259 25.761 201.006 25.8875 200.707 25.9719C200.407 26.0562 200.097 26.0984 199.779 26.0984ZM195.955 19.9548V18.549H200.96V19.9548H195.955ZM202.911 26V18.4927H204.584V20.5593L204.387 19.9548C204.612 19.4487 204.964 19.0645 205.442 18.802C205.929 18.5396 206.534 18.4084 207.255 18.4084V20.0814C207.18 20.0626 207.11 20.0532 207.044 20.0532C206.979 20.0439 206.913 20.0392 206.848 20.0392C206.182 20.0392 205.653 20.236 205.259 20.6296C204.865 21.0139 204.669 21.5903 204.669 22.3588V26H202.911ZM212.206 26.0984C211.372 26.0984 210.641 25.9344 210.013 25.6064C209.394 25.269 208.912 24.8097 208.565 24.2286C208.228 23.6475 208.059 22.9868 208.059 22.2464C208.059 21.4966 208.223 20.8358 208.551 20.2641C208.888 19.683 209.348 19.2285 209.929 18.9004C210.519 18.5724 211.189 18.4084 211.939 18.4084C212.67 18.4084 213.321 18.5677 213.893 18.8864C214.465 19.205 214.915 19.6549 215.243 20.236C215.571 20.8171 215.735 21.5013 215.735 22.2885C215.735 22.3635 215.73 22.4479 215.721 22.5416C215.721 22.6353 215.716 22.7244 215.707 22.8087H209.451V21.6419H214.779L214.09 22.0074C214.099 21.5762 214.01 21.1967 213.823 20.8686C213.635 20.5406 213.378 20.2829 213.05 20.0954C212.731 19.908 212.361 19.8142 211.939 19.8142C211.508 19.8142 211.128 19.908 210.8 20.0954C210.482 20.2829 210.229 20.5453 210.041 20.8827C209.863 21.2107 209.774 21.5997 209.774 22.0496V22.3307C209.774 22.7806 209.877 23.1789 210.083 23.5257C210.29 23.8725 210.58 24.1396 210.955 24.327C211.33 24.5145 211.761 24.6082 212.248 24.6082C212.67 24.6082 213.05 24.5426 213.387 24.4114C213.724 24.2802 214.024 24.074 214.287 23.7928L215.229 24.8753C214.891 25.269 214.465 25.5736 213.949 25.7891C213.443 25.9953 212.862 26.0984 212.206 26.0984ZM223.628 26.0984C223 26.0984 222.395 26.0187 221.814 25.8594C221.243 25.6907 220.788 25.4892 220.451 25.2549L221.125 23.9193C221.463 24.1349 221.866 24.313 222.334 24.4536C222.803 24.5941 223.272 24.6644 223.74 24.6644C224.293 24.6644 224.692 24.5895 224.935 24.4395C225.188 24.2895 225.315 24.088 225.315 23.835C225.315 23.6288 225.231 23.4741 225.062 23.3711C224.893 23.2586 224.673 23.1742 224.401 23.118C224.129 23.0618 223.825 23.0102 223.487 22.9634C223.159 22.9165 222.827 22.8556 222.489 22.7806C222.161 22.6962 221.861 22.5791 221.589 22.4291C221.318 22.2698 221.097 22.0589 220.929 21.7965C220.76 21.5341 220.676 21.1873 220.676 20.7562C220.676 20.2782 220.811 19.8658 221.083 19.519C221.355 19.1629 221.735 18.8911 222.222 18.7036C222.719 18.5068 223.305 18.4084 223.979 18.4084C224.485 18.4084 224.996 18.4646 225.512 18.5771C226.027 18.6896 226.454 18.8489 226.791 19.0551L226.116 20.3906C225.76 20.1751 225.399 20.0298 225.034 19.9548C224.678 19.8705 224.321 19.8283 223.965 19.8283C223.431 19.8283 223.033 19.908 222.77 20.0673C222.517 20.2266 222.391 20.4281 222.391 20.6718C222.391 20.8968 222.475 21.0655 222.644 21.1779C222.812 21.2904 223.033 21.3794 223.305 21.445C223.576 21.5106 223.876 21.5669 224.204 21.6137C224.542 21.6512 224.874 21.7121 225.202 21.7965C225.53 21.8808 225.83 21.998 226.102 22.148C226.383 22.2885 226.608 22.4901 226.777 22.7525C226.946 23.0149 227.03 23.357 227.03 23.7788C227.03 24.2474 226.889 24.6551 226.608 25.0018C226.336 25.3486 225.948 25.6204 225.441 25.8172C224.935 26.0047 224.331 26.0984 223.628 26.0984ZM231.721 26.0984C231.083 26.0984 230.521 25.9813 230.034 25.7469C229.546 25.5033 229.167 25.1377 228.895 24.6504C228.623 24.1536 228.487 23.5304 228.487 22.7806V18.4927H230.244V22.5416C230.244 23.2164 230.394 23.7225 230.694 24.0599C231.004 24.388 231.439 24.552 232.002 24.552C232.414 24.552 232.77 24.4676 233.07 24.2989C233.38 24.1302 233.619 23.8772 233.787 23.5398C233.965 23.2024 234.054 22.7853 234.054 22.2885V18.4927H235.812V26H234.139V23.9756L234.434 24.5941C234.181 25.0815 233.811 25.4564 233.323 25.7188C232.836 25.9719 232.302 26.0984 231.721 26.0984ZM242.738 26V24.4817L242.639 24.1583V21.5013C242.639 20.9858 242.485 20.5875 242.175 20.3063C241.866 20.0157 241.398 19.8705 240.77 19.8705C240.348 19.8705 239.931 19.9361 239.518 20.0673C239.115 20.1985 238.773 20.3813 238.492 20.6156L237.803 19.3363C238.206 19.027 238.684 18.7973 239.237 18.6474C239.8 18.4881 240.381 18.4084 240.98 18.4084C242.068 18.4084 242.907 18.6708 243.497 19.1957C244.097 19.7111 244.397 20.5125 244.397 21.5997V26H242.738ZM240.376 26.0984C239.814 26.0984 239.322 26.0047 238.9 25.8172C238.478 25.6204 238.15 25.3533 237.916 25.0159C237.691 24.6691 237.578 24.2802 237.578 23.849C237.578 23.4273 237.677 23.0477 237.874 22.7103C238.08 22.3729 238.412 22.1058 238.872 21.909C239.331 21.7121 239.94 21.6137 240.699 21.6137H242.878V22.7806H240.826C240.226 22.7806 239.823 22.879 239.617 23.0758C239.411 23.2633 239.308 23.4976 239.308 23.7788C239.308 24.0974 239.434 24.3505 239.687 24.5379C239.94 24.7254 240.292 24.8191 240.741 24.8191C241.173 24.8191 241.557 24.7207 241.894 24.5239C242.241 24.327 242.489 24.0365 242.639 23.6522L242.935 24.7066C242.766 25.1471 242.461 25.4892 242.021 25.7329C241.59 25.9766 241.041 26.0984 240.376 26.0984ZM252.857 26.0984C252.229 26.0984 251.625 26.0187 251.043 25.8594C250.472 25.6907 250.017 25.4892 249.68 25.2549L250.355 23.9193C250.692 24.1349 251.095 24.313 251.564 24.4536C252.032 24.5941 252.501 24.6644 252.969 24.6644C253.522 24.6644 253.921 24.5895 254.164 24.4395C254.417 24.2895 254.544 24.088 254.544 23.835C254.544 23.6288 254.46 23.4741 254.291 23.3711C254.122 23.2586 253.902 23.1742 253.63 23.118C253.358 23.0618 253.054 23.0102 252.716 22.9634C252.388 22.9165 252.056 22.8556 251.718 22.7806C251.39 22.6962 251.09 22.5791 250.818 22.4291C250.547 22.2698 250.326 22.0589 250.158 21.7965C249.989 21.5341 249.905 21.1873 249.905 20.7562C249.905 20.2782 250.041 19.8658 250.312 19.519C250.584 19.1629 250.964 18.8911 251.451 18.7036C251.948 18.5068 252.534 18.4084 253.208 18.4084C253.715 18.4084 254.225 18.4646 254.741 18.5771C255.256 18.6896 255.683 18.8489 256.02 19.0551L255.345 20.3906C254.989 20.1751 254.628 20.0298 254.263 19.9548C253.907 19.8705 253.551 19.8283 253.194 19.8283C252.66 19.8283 252.262 19.908 251.999 20.0673C251.746 20.2266 251.62 20.4281 251.62 20.6718C251.62 20.8968 251.704 21.0655 251.873 21.1779C252.042 21.2904 252.262 21.3794 252.534 21.445C252.805 21.5106 253.105 21.5669 253.433 21.6137C253.771 21.6512 254.104 21.7121 254.432 21.7965C254.76 21.8808 255.059 21.998 255.331 22.148C255.612 22.2885 255.837 22.4901 256.006 22.7525C256.175 23.0149 256.259 23.357 256.259 23.7788C256.259 24.2474 256.119 24.6551 255.837 25.0018C255.566 25.3486 255.177 25.6204 254.671 25.8172C254.164 26.0047 253.56 26.0984 252.857 26.0984ZM262.398 26V24.4817L262.299 24.1583V21.5013C262.299 20.9858 262.145 20.5875 261.835 20.3063C261.526 20.0157 261.058 19.8705 260.43 19.8705C260.008 19.8705 259.591 19.9361 259.178 20.0673C258.775 20.1985 258.433 20.3813 258.152 20.6156L257.463 19.3363C257.866 19.027 258.344 18.7973 258.897 18.6474C259.46 18.4881 260.041 18.4084 260.64 18.4084C261.728 18.4084 262.566 18.6708 263.157 19.1957C263.757 19.7111 264.057 20.5125 264.057 21.5997V26H262.398ZM260.036 26.0984C259.474 26.0984 258.982 26.0047 258.56 25.8172C258.138 25.6204 257.81 25.3533 257.576 25.0159C257.351 24.6691 257.238 24.2802 257.238 23.849C257.238 23.4273 257.337 23.0477 257.534 22.7103C257.74 22.3729 258.072 22.1058 258.532 21.909C258.991 21.7121 259.6 21.6137 260.359 21.6137H262.538V22.7806H260.486C259.886 22.7806 259.483 22.879 259.277 23.0758C259.071 23.2633 258.967 23.4976 258.967 23.7788C258.967 24.0974 259.094 24.3505 259.347 24.5379C259.6 24.7254 259.952 24.8191 260.401 24.8191C260.833 24.8191 261.217 24.7207 261.554 24.5239C261.901 24.327 262.149 24.0365 262.299 23.6522L262.595 24.7066C262.426 25.1471 262.121 25.4892 261.681 25.7329C261.25 25.9766 260.701 26.0984 260.036 26.0984ZM266.312 26V15.5686H268.069V26H266.312ZM275.001 26V24.4817L274.903 24.1583V21.5013C274.903 20.9858 274.748 20.5875 274.439 20.3063C274.129 20.0157 273.661 19.8705 273.033 19.8705C272.611 19.8705 272.194 19.9361 271.782 20.0673C271.379 20.1985 271.037 20.3813 270.755 20.6156L270.066 19.3363C270.47 19.027 270.947 18.7973 271.5 18.6474C272.063 18.4881 272.644 18.4084 273.244 18.4084C274.331 18.4084 275.17 18.6708 275.76 19.1957C276.36 19.7111 276.66 20.5125 276.66 21.5997V26H275.001ZM272.639 26.0984C272.077 26.0984 271.585 26.0047 271.163 25.8172C270.741 25.6204 270.413 25.3533 270.179 25.0159C269.954 24.6691 269.842 24.2802 269.842 23.849C269.842 23.4273 269.94 23.0477 270.137 22.7103C270.343 22.3729 270.676 22.1058 271.135 21.909C271.594 21.7121 272.203 21.6137 272.963 21.6137H275.142V22.7806H273.089C272.489 22.7806 272.086 22.879 271.88 23.0758C271.674 23.2633 271.571 23.4976 271.571 23.7788C271.571 24.0974 271.697 24.3505 271.95 24.5379C272.203 24.7254 272.555 24.8191 273.005 24.8191C273.436 24.8191 273.82 24.7207 274.158 24.5239C274.504 24.327 274.753 24.0365 274.903 23.6522L275.198 24.7066C275.029 25.1471 274.725 25.4892 274.284 25.7329C273.853 25.9766 273.305 26.0984 272.639 26.0984Z" fill="#606165"/>
</svg>
