<svg width="8" height="9" viewBox="0 0 8 9" fill="none" xmlns="http://www.w3.org/2000/svg">
<path fill-rule="evenodd" clip-rule="evenodd" d="M3.93381 8.61664L3.96374 8.63374L3.97571 8.64058C4.02318 8.66625 4.0763 8.67969 4.13027 8.67969C4.18423 8.67969 4.23735 8.66625 4.28482 8.64058L4.29679 8.63416L4.32715 8.61664C4.49437 8.51748 4.65753 8.41165 4.81626 8.2994C5.22715 8.00931 5.61107 7.68277 5.96335 7.32375C6.79449 6.47295 7.65769 5.1946 7.65769 3.54985C7.65769 2.61438 7.28607 1.71722 6.62459 1.05574C5.96311 0.39426 5.06595 0.022644 4.13048 0.022644C3.19501 0.022644 2.29785 0.39426 1.63637 1.05574C0.974887 1.71722 0.603271 2.61438 0.603271 3.54985C0.603271 5.19417 1.4669 6.47295 2.29761 7.32375C2.64976 7.68275 3.03353 8.00928 3.44428 8.2994C3.60314 8.41166 3.76645 8.51749 3.93381 8.61664ZM4.13048 4.83247C4.47065 4.83247 4.79689 4.69734 5.03743 4.4568C5.27797 4.21627 5.4131 3.89003 5.4131 3.54985C5.4131 3.20968 5.27797 2.88344 5.03743 2.6429C4.79689 2.40236 4.47065 2.26723 4.13048 2.26723C3.79031 2.26723 3.46407 2.40236 3.22353 2.6429C2.98299 2.88344 2.84786 3.20968 2.84786 3.54985C2.84786 3.89003 2.98299 4.21627 3.22353 4.4568C3.46407 4.69734 3.79031 4.83247 4.13048 4.83247Z" fill="#FF2800"/>
</svg>
